HIERARCHY
ROOT root
{
	OFFSET	0	13.1	24.9
	CHANNELS 6  Xposition Yposition Zposition Xrotation Yrotation Zrotation
	JOINT spine_1
	{
		OFFSET	0	9.99999	0
		CHANNELS 3  Xrotation Yrotation Zrotation
		JOINT spine_2
		{
			OFFSET	0	112	-10
			CHANNELS 3  Xrotation Yrotation Zrotation
			JOINT spine_3
			{
				OFFSET	0	206.5	19.3
				CHANNELS 3  Xrotation Yrotation Zrotation
				JOINT spine_4
				{
					OFFSET	0	110.4	14.6
					CHANNELS 3  Xrotation Yrotation Zrotation
					JOINT neck_1
					{
						OFFSET	0	71.8	-50.3
						CHANNELS 3  Xrotation Yrotation Zrotation
						JOINT neck_2
						{
							OFFSET	0	86.2	-25.8
							CHANNELS 3  Xrotation Yrotation Zrotation
							JOINT head_ee
							{
								OFFSET	0	179.8	-8.7
								CHANNELS 3  Xrotation Yrotation Zrotation
								End Site
								{
									OFFSET	1	0	0
								}
							}
						}
					}
					JOINT left_clavicle
					{
						OFFSET	-43.2	22.4	-70.8
						CHANNELS 3  Xrotation Yrotation Zrotation
						JOINT left_shoulder
						{
							OFFSET	-93.9	-5.79999	48.7
							CHANNELS 3  Xrotation Yrotation Zrotation
							JOINT left_elbow
							{
								OFFSET	-291.4	-30.8	15.2
								CHANNELS 3  Xrotation Yrotation Zrotation
								JOINT left_lowarm_twist
								{
									OFFSET	-110.7	-3.89999	13.6
									CHANNELS 3  Xrotation Yrotation Zrotation
									JOINT left_hand
									{
										OFFSET	-110.7	-3.89999	13.6
										CHANNELS 3  Xrotation Yrotation Zrotation
										JOINT left_ee
										{
											OFFSET	-80.8	-5.10001	12.1
											CHANNELS 3  Xrotation Yrotation Zrotation
											End Site
											{
												OFFSET	1	0	0
											}
										}
									}
								}
							}
						}
					}
					JOINT right_clavicle
					{
						OFFSET	43.2	22.4	-70.8
						CHANNELS 3  Xrotation Yrotation Zrotation
						JOINT right_shoulder
						{
							OFFSET	93.9	-5.79999	48.7
							CHANNELS 3  Xrotation Yrotation Zrotation
							JOINT right_elbow
							{
								OFFSET	291.4	-30.8	15.2
								CHANNELS 3  Xrotation Yrotation Zrotation
								JOINT right_lowarm_twist
								{
									OFFSET	110.7	-3.89999	13.6
									CHANNELS 3  Xrotation Yrotation Zrotation
									JOINT right_hand
									{
										OFFSET	110.7	-3.89999	13.6
										CHANNELS 3  Xrotation Yrotation Zrotation
										JOINT right_ee
										{
											OFFSET	80.8	-5.10001	12.1
											CHANNELS 3  Xrotation Yrotation Zrotation
											End Site
											{
												OFFSET	1	0	0
											}
										}
									}
								}
							}
						}
					}
				}
			}
		}
	}
	JOINT left_hip
	{
		OFFSET	-82.8	-127.5	0.300001
		CHANNELS 3  Xrotation Yrotation Zrotation
		JOINT left_knee
		{
			OFFSET	-28.2	-396.7	2.2
			CHANNELS 3  Xrotation Yrotation Zrotation
			JOINT left_ankle
			{
				OFFSET	-11.7	-411.3	35.4
				CHANNELS 3  Xrotation Yrotation Zrotation
				JOINT left_toes
				{
					OFFSET	0	-60	-88.6
					CHANNELS 3  Xrotation Yrotation Zrotation
					JOINT left_foot_ee
					{
						OFFSET	-22.5	-16.5	-42.2
						CHANNELS 3  Xrotation Yrotation Zrotation
						End Site
						{
							OFFSET	1	0	0
						}
					}
				}
			}
		}
	}
	JOINT right_hip
	{
		OFFSET	82.8	-127.5	0.300001
		CHANNELS 3  Xrotation Yrotation Zrotation
		JOINT right_knee
		{
			OFFSET	28.2	-396.7	2.2
			CHANNELS 3  Xrotation Yrotation Zrotation
			JOINT right_ankle
			{
				OFFSET	11.7	-411.3	35.4
				CHANNELS 3  Xrotation Yrotation Zrotation
				JOINT right_toes
				{
					OFFSET	0	-60	-88.6
					CHANNELS 3  Xrotation Yrotation Zrotation
					JOINT right_foot_ee
					{
						OFFSET	22.5	-16.5	-42.2
						CHANNELS 3  Xrotation Yrotation Zrotation
						End Site
						{
							OFFSET	1	0	0
						}
					}
				}
			}
		}
	}
}
MOTION
Frames: 16
Frame Time: 0.02
1169.89719545 730.11 -1753.7694308 -11.2063955002 38.7559753089 7.54592538968 3.40817 0.143272 -0.17747 3.40818 0.154274 -0.167993 3.40772 0.177973 -0.142646 3.40772 0.153211 -0.168964 -7.03109 1.31636 -4.22231 -6.97492 5.49387 -3.95791 -0.0 0.0 -0.0 1.91394 -6.4888 3.10924 -18.6329 -27.1605 83.359 0.326294 -9.18186 0.0262011 -42.5554 -3.22694 4.23809 -4.20805 -9.9565 -34.6482 -0.0 0.0 -0.0 2.16177 11.5562 -3.14734 4.90371 47.2383 -75.0532 0.705762 19.2704 -0.119818 -47.535 3.78575 -4.54781 -5.62828 -17.7905 28.1875 0.0 0.0 0.0 46.9237 -3.81587 -1.3595 -77.0284 -4.29014 10.1051 -15.796 29.4177 2.53266 -13.3063 0.0 0.0 -0.0 0.0 -0.0 27.8445 14.5473 -8.99527 -21.5633 -0.273786 -3.27824 24.9353 -27.2852 3.54962 6.24472 -0.0 -0.0 0.0 0.0 0.0 
1149.24201156 737.653 -1764.01781078 -10.8641603362 36.0758313967 7.24640079076 3.41753 0.157705 -0.0151018 3.41752 0.158347 -0.005036 3.41751 0.157282 0.0190153 3.41754 0.158311 -0.00606314 -7.59576 0.763778 -4.9416 -7.52283 4.94971 -4.75854 -0.0 0.0 -0.0 1.95103 -2.58658 3.53493 -20.913 -28.8712 82.7625 0.298318 -8.4064 0.0219239 -41.3159 -3.09219 4.15356 -3.97742 -8.46773 -32.0668 -0.0 0.0 -0.0 1.47503 11.8658 -1.68269 6.87323 48.5105 -75.8706 0.822564 22.1695 -0.161156 -50.2441 4.10042 -4.69561 -5.87969 -19.889 28.2863 0.0 0.0 0.0 50.2545 -5.75343 -0.285021 -76.2202 -4.18092 10.0446 -24.1126 29.791 3.88894 -17.2868 0.0 0.0 -0.0 0.0 -0.0 25.2688 16.2161 -9.39453 -19.9825 -0.295847 -3.03669 25.0893 -27.1805 3.56658 7.6322 -0.0 -0.0 0.0 0.0 0.0 
1122.19713108 734.527 -1775.86239874 -10.8001870856 36.9647791293 7.12334670381 3.41365 0.153018 0.0342758 3.41364 0.150527 0.0439433 3.41376 0.142126 0.0662533 3.41378 0.150806 0.0429756 -7.7005 -0.317423 -5.16307 -7.62266 3.08673 -5.20121 -0.0 0.0 -0.0 2.12061 1.10612 4.17509 -24.1874 -30.9429 82.9915 0.213049 -6.02474 0.0112115 -41.1627 -3.07565 4.14291 -3.81352 -5.7858 -29.4475 -0.0 0.0 -0.0 1.35836 11.622 -1.46379 7.93486 47.9559 -76.001 0.871058 23.3398 -0.179914 -52.978 4.42464 -4.82952 -6.6005 -24.5593 29.2058 0.0 0.0 0.0 49.8468 -6.88193 0.355708 -71.0108 -3.49859 9.6183 -25.3474 28.0541 4.04253 -25.4538 0.0 0.0 -0.0 0.0 -0.0 23.5933 16.0732 -8.73052 -18.8312 -0.307716 -2.86043 26.1644 -26.4327 3.68317 7.71167 -0.0 -0.0 0.0 0.0 0.0 
1098.49353683 733.602 -1775.65264966 -11.8220628982 38.6011321621 7.70170716973 3.62324 0.154334 0.0539782 3.62323 0.150586 0.0636895 3.62341 0.139505 0.0852703 3.62343 0.151221 0.062168 -7.64488 -0.800686 -4.02634 -7.59821 1.37947 -4.17308 -0.0 0.0 -0.0 2.22831 3.53443 4.5677 -26.614 -32.3331 82.4108 0.178265 -5.04667 0.00785599 -40.5239 -3.00705 4.09803 -3.55369 -1.61437 -25.3387 -0.0 0.0 -0.0 1.61223 11.4853 -2.0075 8.8497 46.8741 -75.0944 0.859436 23.0611 -0.175335 -54.9618 4.66366 -4.91692 -7.14508 -28.1942 29.3522 0.0 0.0 0.0 49.5671 -7.65808 -0.377308 -67.7562 -3.09309 9.32134 -22.7771 23.9175 3.55116 -32.36 0.0 0.0 -0.0 0.0 -0.0 22.2489 15.7432 -7.85762 -17.2852 -0.318078 -2.62346 28.1592 -25.6824 3.90759 8.14471 -0.0 -0.0 0.0 0.0 0.0 
1073.35257799 735.197 -1789.3083706 -12.3898968506 39.8212627709 8.16842076918 3.85742 0.143978 -0.00503557 3.85741 0.144007 0.00413638 3.85743 0.141912 0.0248201 3.85746 0.144051 0.0020961 -7.72451 -1.05317 -2.6422 -7.70492 -0.0824403 -2.84904 -0.0 0.0 -0.0 2.32684 5.06907 4.86239 -28.7846 -33.3811 80.9762 0.180695 -5.1151 0.00807122 -39.3548 -2.88281 4.01394 -3.05347 3.6578 -18.985 -0.0 0.0 -0.0 1.7178 12.2671 -2.15039 11.5403 45.944 -74.696 0.915203 24.3875 -0.197774 -56.0058 4.79061 -4.95957 -7.44784 -29.9108 29.561 0.0 0.0 0.0 49.488 -8.04667 -0.781305 -61.1933 -2.33021 8.65558 -22.3386 19.033 3.41567 -39.7016 0.0 0.0 -0.0 0.0 -0.0 19.5692 16.1658 -7.48373 -16.1651 -0.321589 -2.45164 32.0385 -24.8818 4.33598 8.75394 -0.0 -0.0 0.0 0.0 0.0 
1046.85242532 731.281 -1820.55029292 -11.9883025092 41.131540191 9.00728624657 3.90165 -0.0412685 -0.508499 3.90179 -0.00882823 -0.510094 3.90179 0.0642906 -0.506104 3.90144 -0.0164448 -0.509905 -7.5737 0.342609 0.385358 -7.57331 0.363022 0.455537 -0.0 0.0 -0.0 2.17695 7.93276 4.79465 -30.8601 -34.6736 79.5453 0.19554 -5.53282 0.0094486 -39.2959 -2.87659 4.00963 -2.32893 16.4627 -7.58285 -0.0 0.0 -0.0 2.6738 9.28498 -4.41479 12.1219 44.7994 -72.8554 1.15791 29.8374 -0.30851 -60.9553 5.40179 -5.12993 -7.4231 -28.1799 31.1949 0.0 0.0 0.0 51.248 -9.98877 -1.87476 -54.4511 -1.63153 7.88643 -18.3107 10.7687 2.75254 -40.2556 0.0 0.0 -0.0 0.0 -0.0 15.72 13.5816 -8.49327 -13.7207 -0.317586 -2.07666 36.86 -19.4927 4.71734 9.37502 -0.0 -0.0 0.0 0.0 0.0 
1032.908876 721.906 -1834.65847113 -12.9407724987 40.8974700585 10.0458106067 4.16217 -0.0531535 -0.589501 4.16236 -0.015535 -0.591688 4.1624 0.0666603 -0.588127 4.16192 -0.0270582 -0.591273 -7.51796 1.23693 1.26464 -7.51394 1.39934 1.51818 -0.0 0.0 -0.0 2.15177 9.06454 4.82918 -31.0463 -34.9318 79.5409 0.199042 -5.63127 0.00978926 -39.1711 -2.86345 4.0005 -2.03567 20.8635 -3.61499 -0.0 0.0 -0.0 2.8511 8.45543 -4.84975 11.3883 43.8215 -70.6639 1.29858 32.7507 -0.3816 -62.5198 5.59769 -5.17269 -7.36495 -27.17 31.8464 0.0 0.0 0.0 52.4156 -11.8916 -1.57686 -50.4498 -1.26157 7.39347 -16.937 8.12734 2.54255 -40.0616 0.0 0.0 -0.0 0.0 -0.0 14.5093 12.8205 -8.99394 -13.0494 -0.313687 -1.97372 38.131 -17.3513 4.79903 9.57195 -0.0 -0.0 0.0 0.0 0.0 
1025.40756362 721.906 -1827.42979234 -13.1821612484 42.0740631444 10.4101874035 4.16217 -0.0531535 -0.589501 4.16236 -0.015535 -0.591688 4.1624 0.0666603 -0.588127 4.16192 -0.0270582 -0.591273 -7.51796 1.23693 1.26464 -7.51394 1.39934 1.51818 -0.0 0.0 -0.0 2.15177 9.06454 4.82918 -31.0463 -34.9318 79.5409 0.199042 -5.63127 0.00978926 -39.1711 -2.86345 4.0005 -2.03567 20.8635 -3.61499 -0.0 0.0 -0.0 2.8511 8.45543 -4.84975 11.3883 43.8215 -70.6639 1.29858 32.7507 -0.3816 -62.5198 5.59769 -5.17269 -7.36495 -27.17 31.8464 0.0 0.0 0.0 52.4156 -11.8916 -1.57686 -50.4498 -1.26157 7.39347 -16.937 8.12734 2.54255 -40.0616 0.0 0.0 -0.0 0.0 -0.0 14.5093 12.8205 -8.99394 -13.0494 -0.313687 -1.97372 38.131 -17.3513 4.79903 9.57195 -0.0 -0.0 0.0 0.0 0.0 
1017.53299405 720.499 -1846.90137224 -13.9041457997 40.6184405762 11.3238198502 4.48457 0.00662458 -0.971398 4.48509 0.0684208 -0.969009 4.48356 0.196814 -0.951276 4.48231 0.0441152 -0.970419 -7.81672 2.39283 0.68884 -7.81714 3.97273 1.1972 -0.0 0.0 -0.0 1.8471 10.9874 4.44055 -32.5868 -35.6292 80.0245 0.231295 -6.53641 0.0132077 -39.7264 -2.92211 4.04094 -1.61583 26.3402 1.38762 -0.0 0.0 -0.0 2.95613 7.20516 -5.1661 10.7758 42.6664 -67.8822 1.41027 34.9364 -0.443815 -64.083 5.79446 -5.21004 -7.31579 -26.3466 32.3534 0.0 0.0 0.0 51.7121 -13.5125 -1.63613 -41.0479 -0.534778 6.14434 -18.9285 7.55702 2.845 -40.1624 0.0 0.0 -0.0 0.0 -0.0 13.1986 12.5967 -8.97204 -14.4322 -0.320402 -2.18579 39.6216 -15.8334 4.91153 10.2536 -0.0 -0.0 0.0 0.0 0.0 
1000.49257732 721.139 -1865.00876802 -14.6611745297 39.7430828003 12.6833730564 4.73109 -0.127551 -1.34913 4.7321 -0.0414524 -1.35451 4.73229 0.133378 -1.34856 4.72976 -0.0812568 -1.3527 -7.43522 3.30928 -0.879222 -7.43337 6.78874 -0.184117 -0.0 0.0 -0.0 1.94154 9.90811 4.5237 -31.3204 -33.5562 80.8664 0.20519 -5.80406 0.0104018 -39.2627 -2.87309 4.0072 -0.797201 29.0665 7.03072 -0.0 0.0 -0.0 3.01533 6.31469 -5.35628 8.4208 41.8526 -65.2585 1.52766 37.1145 -0.512873 -65.2309 5.93952 -5.23402 -7.49858 -25.27 34.7591 0.0 0.0 0.0 50.7728 -14.427 -1.50985 -33.222 -0.092767 5.02686 -18.193 7.63473 2.73343 -39.6804 0.0 0.0 -0.0 0.0 -0.0 12.213 12.4481 -9.1821 -15.3918 -0.322053 -2.333 39.1188 -14.4463 4.84486 11.0865 -0.0 -0.0 0.0 0.0 0.0 
994.94912502 721.139 -1859.64831856 -14.8373214651 40.5365196568 12.9566084499 4.73109 -0.127551 -1.34913 4.7321 -0.0414524 -1.35451 4.73229 0.133378 -1.34856 4.72976 -0.0812568 -1.3527 -7.43522 3.30928 -0.879222 -7.43337 6.78874 -0.184117 -0.0 0.0 -0.0 1.94154 9.90811 4.5237 -31.3204 -33.5562 80.8664 0.20519 -5.80406 0.0104018 -39.2627 -2.87309 4.0072 -0.797201 29.0665 7.03072 -0.0 0.0 -0.0 3.01533 6.31469 -5.35628 8.4208 41.8526 -65.2585 1.52766 37.1145 -0.512873 -65.2309 5.93952 -5.23402 -7.49858 -25.27 34.7591 0.0 0.0 0.0 50.7728 -14.427 -1.50985 -33.222 -0.092767 5.02686 -18.193 7.63473 2.73343 -39.6804 0.0 0.0 -0.0 0.0 -0.0 12.213 12.4481 -9.1821 -15.3918 -0.322053 -2.333 39.1188 -14.4463 4.84486 11.0865 -0.0 -0.0 0.0 0.0 0.0 
991.168818828 721.139 -1855.9032382 -14.9630320417 41.0836585904 13.1489553666 4.73109 -0.127551 -1.34913 4.7321 -0.0414524 -1.35451 4.73229 0.133378 -1.34856 4.72976 -0.0812568 -1.3527 -7.43522 3.30928 -0.879222 -7.43337 6.78874 -0.184117 -0.0 0.0 -0.0 1.94154 9.90811 4.5237 -31.3204 -33.5562 80.8664 0.20519 -5.80406 0.0104018 -39.2627 -2.87309 4.0072 -0.797201 29.0665 7.03072 -0.0 0.0 -0.0 3.01533 6.31469 -5.35628 8.4208 41.8526 -65.2585 1.52766 37.1145 -0.512873 -65.2309 5.93952 -5.23402 -7.49858 -25.27 34.7591 0.0 0.0 0.0 50.7728 -14.427 -1.50985 -33.222 -0.092767 5.02686 -18.193 7.63473 2.73343 -39.6804 0.0 0.0 -0.0 0.0 -0.0 12.213 12.4481 -9.1821 -15.3918 -0.322053 -2.333 39.1188 -14.4463 4.84486 11.0865 -0.0 -0.0 0.0 0.0 0.0 
986.528522814 721.139 -1851.20323453 -15.1239671394 41.7623064272 13.3921975841 4.73109 -0.127551 -1.34913 4.7321 -0.0414524 -1.35451 4.73229 0.133378 -1.34856 4.72976 -0.0812568 -1.3527 -7.43522 3.30928 -0.879222 -7.43337 6.78874 -0.184117 -0.0 0.0 -0.0 1.94154 9.90811 4.5237 -31.3204 -33.5562 80.8664 0.20519 -5.80406 0.0104018 -39.2627 -2.87309 4.0072 -0.797201 29.0665 7.03072 -0.0 0.0 -0.0 3.01533 6.31469 -5.35628 8.4208 41.8526 -65.2585 1.52766 37.1145 -0.512873 -65.2309 5.93952 -5.23402 -7.49858 -25.27 34.7591 0.0 0.0 0.0 50.7728 -14.427 -1.50985 -33.222 -0.092767 5.02686 -18.193 7.63473 2.73343 -39.6804 0.0 0.0 -0.0 0.0 -0.0 12.213 12.4481 -9.1821 -15.3918 -0.322053 -2.333 39.1188 -14.4463 4.84486 11.0865 -0.0 -0.0 0.0 0.0 0.0 
979.956950383 721.139 -1844.34496863 -15.3653496432 42.7373761904 13.7511892326 4.73109 -0.127551 -1.34913 4.7321 -0.0414524 -1.35451 4.73229 0.133378 -1.34856 4.72976 -0.0812568 -1.3527 -7.43522 3.30928 -0.879222 -7.43337 6.78874 -0.184117 -0.0 0.0 -0.0 1.94154 9.90811 4.5237 -31.3204 -33.5562 80.8664 0.20519 -5.80406 0.0104018 -39.2627 -2.87309 4.0072 -0.797201 29.0665 7.03072 -0.0 0.0 -0.0 3.01533 6.31469 -5.35628 8.4208 41.8526 -65.2585 1.52766 37.1145 -0.512873 -65.2309 5.93952 -5.23402 -7.49858 -25.27 34.7591 0.0 0.0 0.0 50.7728 -14.427 -1.50985 -33.222 -0.092767 5.02686 -18.193 7.63473 2.73343 -39.6804 0.0 0.0 -0.0 0.0 -0.0 12.213 12.4481 -9.1821 -15.3918 -0.322053 -2.333 39.1188 -14.4463 4.84486 11.0865 -0.0 -0.0 0.0 0.0 0.0 
891.989493805 696.612 -1964.52015783 -17.3512627719 38.8255930731 16.3861674026 5.41437 -0.211896 -1.30717 5.41532 -0.128295 -1.31801 5.41735 0.0267012 -1.32396 5.41495 -0.182711 -1.31157 -5.78744 1.33933 0.563018 -5.78633 2.05554 0.816137 -0.0 0.0 -0.0 2.72725 5.27012 5.60948 -27.5063 -26.4758 80.6957 0.3247 -9.13777 0.0259473 -27.5412 -1.7338 3.03014 2.73812 28.2728 27.0828 -0.0 0.0 -0.0 4.79211 9.26981 -8.79876 0.0985358 32.6545 -63.3064 1.78297 41.4481 -0.67463 -70.6442 6.62827 -5.30758 -7.44897 -21.974 37.8512 0.0 0.0 0.0 44.2869 -15.5517 -4.99981 -4.72859 0.165604 0.706596 1.98776 7.87262 -0.28947 -28.1424 0.0 0.0 -0.0 0.0 -0.0 4.88846 11.783 -9.62023 -13.9082 -0.31846 -2.10541 36.7775 -9.05812 4.57722 13.3856 -0.0 -0.0 0.0 0.0 0.0 
889.376303142 696.612 -1961.94254562 -17.4254360299 39.1183777768 16.5041006884 5.41437 -0.211896 -1.30717 5.41532 -0.128295 -1.31801 5.41735 0.0267012 -1.32396 5.41495 -0.182711 -1.31157 -5.78744 1.33933 0.563018 -5.78633 2.05554 0.816137 -0.0 0.0 -0.0 2.72725 5.27012 5.60948 -27.5063 -26.4758 80.6957 0.3247 -9.13777 0.0259473 -27.5412 -1.7338 3.03014 2.73812 28.2728 27.0828 -0.0 0.0 -0.0 4.79211 9.26981 -8.79876 0.0985358 32.6545 -63.3064 1.78297 41.4481 -0.67463 -70.6442 6.62827 -5.30758 -7.44897 -21.974 37.8512 0.0 0.0 0.0 44.2869 -15.5517 -4.99981 -4.72859 0.165604 0.706596 1.98776 7.87262 -0.28947 -28.1424 0.0 0.0 -0.0 0.0 -0.0 4.88846 11.783 -9.62023 -13.9082 -0.31846 -2.10541 36.7775 -9.05812 4.57722 13.3856 -0.0 -0.0 0.0 0.0 0.0 
